<mxfile host="app.diagrams.net" modified="2024-07-22T09:09:10.196Z" agent="Mozilla/5.0 (Macintosh; Intel Mac OS X 10_15_7) AppleWebKit/537.36 (KHTML, like Gecko) Chrome/126.0.0.0 Safari/537.36" etag="pCU3aEL2Z0nU-gAR4HhH" version="24.7.1" type="github">
  <diagram name="Page-1" id="97916047-d0de-89f5-080d-49f4d83e522f">
    <mxGraphModel dx="1908" dy="1034" grid="1" gridSize="10" guides="1" tooltips="1" connect="1" arrows="1" fold="1" page="1" pageScale="1.5" pageWidth="1169" pageHeight="827" background="none" math="0" shadow="0">
      <root>
        <mxCell id="0" />
        <mxCell id="1" parent="0" />
        <mxCell id="SAdEDekwwvnTSsliWkF6-55" value="Katalon Studio" style="rounded=1;fillColor=#67AB9F;strokeColor=none;shadow=1;gradientColor=none;fontStyle=1;fontColor=#333333;fontSize=14;" vertex="1" parent="1">
          <mxGeometry x="2550" y="150" width="200" height="60" as="geometry" />
        </mxCell>
        <mxCell id="SAdEDekwwvnTSsliWkF6-56" value="Katalon Studio Free&#xa;(Thuy Ngo)" style="rounded=1;fillColor=#79C9BB;strokeColor=none;shadow=1;gradientColor=none;fontStyle=1;fontColor=#333333;fontSize=14;" vertex="1" parent="1">
          <mxGeometry x="2970" y="300" width="220" height="60" as="geometry" />
        </mxCell>
        <mxCell id="SAdEDekwwvnTSsliWkF6-58" value="API Testing" style="rounded=1;fillColor=#79C9BB;strokeColor=none;shadow=1;gradientColor=none;fontStyle=1;fontColor=#333333;fontSize=14;" vertex="1" parent="1">
          <mxGeometry x="3120" y="430" width="200" height="60" as="geometry" />
        </mxCell>
        <mxCell id="SAdEDekwwvnTSsliWkF6-61" value="" style="edgeStyle=elbowEdgeStyle;elbow=vertical;strokeWidth=4;endArrow=block;endFill=1;fontStyle=1;strokeColor=#23445D;exitX=0.5;exitY=1;exitDx=0;exitDy=0;fontColor=#333333;" edge="1" parent="1" source="SAdEDekwwvnTSsliWkF6-55" target="SAdEDekwwvnTSsliWkF6-56">
          <mxGeometry x="22" y="165.5" width="100" height="100" as="geometry">
            <mxPoint x="2260" y="240" as="sourcePoint" />
            <mxPoint x="1610" y="140" as="targetPoint" />
            <Array as="points">
              <mxPoint x="2710" y="260" />
            </Array>
          </mxGeometry>
        </mxCell>
        <mxCell id="SAdEDekwwvnTSsliWkF6-67" value="Katalon Studio Enterprise&#xa;(Philip Becker)" style="rounded=1;fillColor=#9ECCC4;strokeColor=none;shadow=1;gradientColor=none;fontStyle=1;fontColor=#333333;fontSize=14;" vertex="1" parent="1">
          <mxGeometry x="2098.5" y="300" width="220" height="60" as="geometry" />
        </mxCell>
        <mxCell id="SAdEDekwwvnTSsliWkF6-70" value="" style="edgeStyle=elbowEdgeStyle;elbow=vertical;strokeWidth=4;endArrow=block;endFill=1;fontStyle=1;strokeColor=#23445D;entryX=0.5;entryY=0;entryDx=0;entryDy=0;exitX=0.5;exitY=1;exitDx=0;exitDy=0;fontColor=#333333;" edge="1" parent="1" source="SAdEDekwwvnTSsliWkF6-55" target="SAdEDekwwvnTSsliWkF6-67">
          <mxGeometry x="22" y="165.5" width="100" height="100" as="geometry">
            <mxPoint x="2260" y="220" as="sourcePoint" />
            <mxPoint x="2440" y="330" as="targetPoint" />
            <Array as="points">
              <mxPoint x="2250" y="260" />
            </Array>
          </mxGeometry>
        </mxCell>
        <mxCell id="SAdEDekwwvnTSsliWkF6-71" value="Web Testing" style="rounded=1;fillColor=#79C9BB;strokeColor=none;shadow=1;gradientColor=none;fontStyle=1;fontColor=#333333;fontSize=14;" vertex="1" parent="1">
          <mxGeometry x="2840" y="430" width="200" height="60" as="geometry" />
        </mxCell>
        <mxCell id="SAdEDekwwvnTSsliWkF6-79" value="API Testing&#xa;(Duy Lam/Technical PM)" style="rounded=1;fillColor=#9ECCC4;strokeColor=none;shadow=1;gradientColor=none;fontStyle=1;fontColor=#333333;fontSize=14;" vertex="1" parent="1">
          <mxGeometry x="1875" y="430" width="200" height="60" as="geometry" />
        </mxCell>
        <mxCell id="SAdEDekwwvnTSsliWkF6-80" value="Web Testing&#xa;(Philip Becker)" style="rounded=1;fillColor=#9ECCC4;strokeColor=none;shadow=1;gradientColor=none;fontStyle=1;fontColor=#333333;fontSize=14;" vertex="1" parent="1">
          <mxGeometry x="1640" y="430" width="200" height="60" as="geometry" />
        </mxCell>
        <mxCell id="SAdEDekwwvnTSsliWkF6-83" value="Mobile Testing&#xa;(Thuy Ngo &amp; Xuan Tran)" style="rounded=1;fillColor=#9ECCC4;strokeColor=none;shadow=1;gradientColor=none;fontStyle=1;fontColor=#333333;fontSize=14;" vertex="1" parent="1">
          <mxGeometry x="2108.5" y="430" width="200" height="60" as="geometry" />
        </mxCell>
        <mxCell id="SAdEDekwwvnTSsliWkF6-84" value="Desktop Testing" style="rounded=1;fillColor=#9ECCC4;strokeColor=none;shadow=1;gradientColor=none;fontStyle=1;fontColor=#333333;fontSize=14;" vertex="1" parent="1">
          <mxGeometry x="2340" y="430" width="200" height="60" as="geometry" />
        </mxCell>
        <mxCell id="SAdEDekwwvnTSsliWkF6-87" value="" style="edgeStyle=elbowEdgeStyle;elbow=vertical;strokeWidth=4;endArrow=block;endFill=1;fontStyle=1;dashed=1;strokeColor=#23445D;entryX=0;entryY=0.5;entryDx=0;entryDy=0;fontColor=#333333;" edge="1" parent="1">
          <mxGeometry x="22" y="165.5" width="100" height="100" as="geometry">
            <mxPoint x="3190" y="330" as="sourcePoint" />
            <mxPoint x="3470" y="330" as="targetPoint" />
            <Array as="points">
              <mxPoint x="3320" y="330" />
            </Array>
          </mxGeometry>
        </mxCell>
        <mxCell id="SAdEDekwwvnTSsliWkF6-88" value="Katalon Recorder&#xa;(Thuy Ngo)Â " style="rounded=1;fillColor=#FFA5A2;strokeColor=none;shadow=1;gradientColor=none;fontStyle=1;fontColor=#333333;fontSize=14;" vertex="1" parent="1">
          <mxGeometry x="3480" y="300" width="200" height="60" as="geometry" />
        </mxCell>
        <mxCell id="SAdEDekwwvnTSsliWkF6-89" value="" style="edgeStyle=elbowEdgeStyle;elbow=vertical;strokeWidth=4;endArrow=block;endFill=1;fontStyle=1;strokeColor=#23445D;entryX=0.5;entryY=0;entryDx=0;entryDy=0;exitX=0.5;exitY=1;exitDx=0;exitDy=0;fontColor=#333333;" edge="1" parent="1" source="SAdEDekwwvnTSsliWkF6-67" target="SAdEDekwwvnTSsliWkF6-80">
          <mxGeometry x="22" y="165.5" width="100" height="100" as="geometry">
            <mxPoint x="2276" y="340" as="sourcePoint" />
            <mxPoint x="1796" y="430" as="targetPoint" />
            <Array as="points">
              <mxPoint x="1726" y="390" />
            </Array>
          </mxGeometry>
        </mxCell>
        <mxCell id="SAdEDekwwvnTSsliWkF6-91" value="" style="edgeStyle=elbowEdgeStyle;elbow=vertical;strokeWidth=4;endArrow=block;endFill=1;fontStyle=1;strokeColor=#23445D;entryX=0.5;entryY=0;entryDx=0;entryDy=0;fontColor=#333333;exitX=0.5;exitY=1;exitDx=0;exitDy=0;" edge="1" parent="1" source="SAdEDekwwvnTSsliWkF6-67" target="SAdEDekwwvnTSsliWkF6-79">
          <mxGeometry x="22" y="165.5" width="100" height="100" as="geometry">
            <mxPoint x="2086" y="360" as="sourcePoint" />
            <mxPoint x="1806" y="440" as="targetPoint" />
            <Array as="points">
              <mxPoint x="2046" y="390" />
            </Array>
          </mxGeometry>
        </mxCell>
        <mxCell id="SAdEDekwwvnTSsliWkF6-92" value="" style="edgeStyle=elbowEdgeStyle;elbow=vertical;strokeWidth=4;endArrow=block;endFill=1;fontStyle=1;strokeColor=#23445D;entryX=0.5;entryY=0;entryDx=0;entryDy=0;exitX=0.5;exitY=1;exitDx=0;exitDy=0;fontColor=#333333;" edge="1" parent="1" source="SAdEDekwwvnTSsliWkF6-67" target="SAdEDekwwvnTSsliWkF6-83">
          <mxGeometry x="22" y="165.5" width="100" height="100" as="geometry">
            <mxPoint x="2096" y="370" as="sourcePoint" />
            <mxPoint x="2026" y="440" as="targetPoint" />
            <Array as="points">
              <mxPoint x="2166" y="390" />
            </Array>
          </mxGeometry>
        </mxCell>
        <mxCell id="SAdEDekwwvnTSsliWkF6-93" value="" style="edgeStyle=elbowEdgeStyle;elbow=vertical;strokeWidth=4;endArrow=block;endFill=1;fontStyle=1;strokeColor=#23445D;entryX=0.5;entryY=0;entryDx=0;entryDy=0;fontColor=#333333;exitX=0.5;exitY=1;exitDx=0;exitDy=0;" edge="1" parent="1" source="SAdEDekwwvnTSsliWkF6-67" target="SAdEDekwwvnTSsliWkF6-84">
          <mxGeometry x="22" y="165.5" width="100" height="100" as="geometry">
            <mxPoint x="2086" y="360" as="sourcePoint" />
            <mxPoint x="2256" y="440" as="targetPoint" />
            <Array as="points">
              <mxPoint x="2276" y="390" />
            </Array>
          </mxGeometry>
        </mxCell>
        <mxCell id="SAdEDekwwvnTSsliWkF6-94" value="" style="edgeStyle=elbowEdgeStyle;elbow=vertical;strokeWidth=4;endArrow=block;endFill=1;fontStyle=1;strokeColor=#23445D;entryX=0.5;entryY=0;entryDx=0;entryDy=0;fontColor=#333333;" edge="1" parent="1" target="SAdEDekwwvnTSsliWkF6-58">
          <mxGeometry x="22" y="165.5" width="100" height="100" as="geometry">
            <mxPoint x="3080" y="360" as="sourcePoint" />
            <mxPoint x="3450" y="430" as="targetPoint" />
            <Array as="points">
              <mxPoint x="3270" y="390" />
            </Array>
          </mxGeometry>
        </mxCell>
        <mxCell id="SAdEDekwwvnTSsliWkF6-95" value="" style="edgeStyle=elbowEdgeStyle;elbow=vertical;strokeWidth=4;endArrow=block;endFill=1;fontStyle=1;strokeColor=#23445D;entryX=0.5;entryY=0;entryDx=0;entryDy=0;fontColor=#333333;" edge="1" parent="1" target="SAdEDekwwvnTSsliWkF6-71">
          <mxGeometry x="22" y="165.5" width="100" height="100" as="geometry">
            <mxPoint x="3080" y="360" as="sourcePoint" />
            <mxPoint x="3240" y="430" as="targetPoint" />
            <Array as="points">
              <mxPoint x="3270" y="390" />
            </Array>
          </mxGeometry>
        </mxCell>
        <mxCell id="SAdEDekwwvnTSsliWkF6-118" value="" style="edgeStyle=elbowEdgeStyle;elbow=vertical;strokeWidth=4;endArrow=block;endFill=1;fontStyle=1;strokeColor=#23445D;fontColor=#333333;exitX=0.5;exitY=1;exitDx=0;exitDy=0;" edge="1" parent="1" source="SAdEDekwwvnTSsliWkF6-67">
          <mxGeometry x="22" y="165.5" width="100" height="100" as="geometry">
            <mxPoint x="2087" y="360" as="sourcePoint" />
            <mxPoint x="2677" y="430" as="targetPoint" />
            <Array as="points">
              <mxPoint x="2387" y="390" />
            </Array>
          </mxGeometry>
        </mxCell>
        <mxCell id="SAdEDekwwvnTSsliWkF6-119" value="AI&#xa;(Xuan Tran)" style="rounded=1;fillColor=#9ECCC4;strokeColor=none;shadow=1;gradientColor=none;fontStyle=1;fontColor=#333333;fontSize=14;" vertex="1" parent="1">
          <mxGeometry x="2570" y="430" width="200" height="60" as="geometry" />
        </mxCell>
        <mxCell id="SAdEDekwwvnTSsliWkF6-132" value="&lt;h1 style=&quot;margin-top: 0px;&quot;&gt;Product Ownership&lt;/h1&gt;" style="text;html=1;whiteSpace=wrap;overflow=hidden;rounded=0;fontColor=#333333;" vertex="1" parent="1">
          <mxGeometry x="1519" y="90" width="230" height="50" as="geometry" />
        </mxCell>
        <mxCell id="SAdEDekwwvnTSsliWkF6-133" value="&lt;h1 style=&quot;margin-top: 0px;&quot;&gt;Technical Ownership&lt;/h1&gt;" style="text;html=1;whiteSpace=wrap;overflow=hidden;rounded=0;fontColor=#333333;" vertex="1" parent="1">
          <mxGeometry x="1519" y="610" width="276" height="70" as="geometry" />
        </mxCell>
        <mxCell id="SAdEDekwwvnTSsliWkF6-134" value="API Testing&#xa;(Duy Lam)" style="rounded=1;fillColor=#7EA6E0;strokeColor=none;shadow=1;gradientColor=none;fontStyle=1;fontColor=#333333;fontSize=14;" vertex="1" parent="1">
          <mxGeometry x="1962" y="856" width="200" height="60" as="geometry" />
        </mxCell>
        <mxCell id="SAdEDekwwvnTSsliWkF6-135" value="Web Testing&#xa;(Vu Than)" style="rounded=1;fillColor=#7EA6E0;strokeColor=none;shadow=1;gradientColor=none;fontStyle=1;fontColor=#333333;fontSize=14;" vertex="1" parent="1">
          <mxGeometry x="1643" y="856" width="200" height="60" as="geometry" />
        </mxCell>
        <mxCell id="SAdEDekwwvnTSsliWkF6-136" value="Mobile Testing&#xa;(Duy Lam)" style="rounded=1;fillColor=#7EA6E0;strokeColor=none;shadow=1;gradientColor=none;fontStyle=1;fontColor=#333333;fontSize=14;" vertex="1" parent="1">
          <mxGeometry x="2315" y="856" width="200" height="60" as="geometry" />
        </mxCell>
        <mxCell id="SAdEDekwwvnTSsliWkF6-137" value="Desktop Testing" style="rounded=1;fillColor=#7EA6E0;strokeColor=none;shadow=1;gradientColor=none;fontStyle=1;fontColor=#333333;fontSize=14;" vertex="1" parent="1">
          <mxGeometry x="2616" y="856" width="200" height="60" as="geometry" />
        </mxCell>
        <mxCell id="SAdEDekwwvnTSsliWkF6-144" value="Tech Lead - Vu Than" style="rounded=1;fillColor=#7EA6E0;strokeColor=none;shadow=1;gradientColor=none;fontStyle=1;fontColor=#333333;fontSize=14;" vertex="1" parent="1">
          <mxGeometry x="1573" y="976" width="150" height="60" as="geometry" />
        </mxCell>
        <mxCell id="SAdEDekwwvnTSsliWkF6-145" value="" style="edgeStyle=elbowEdgeStyle;elbow=vertical;strokeWidth=4;endArrow=block;endFill=1;fontStyle=1;strokeColor=#23445D;entryX=0.5;entryY=0;entryDx=0;entryDy=0;exitX=0.5;exitY=1;exitDx=0;exitDy=0;fontColor=#333333;fillColor=#7EA6E0;" edge="1" parent="1" target="SAdEDekwwvnTSsliWkF6-144" source="SAdEDekwwvnTSsliWkF6-135">
          <mxGeometry x="22" y="165.5" width="100" height="100" as="geometry">
            <mxPoint x="1780.58" y="1036" as="sourcePoint" />
            <mxPoint x="1780.58" y="1096" as="targetPoint" />
            <Array as="points" />
          </mxGeometry>
        </mxCell>
        <mxCell id="SAdEDekwwvnTSsliWkF6-146" value="QE Lead - An Tran" style="rounded=1;fillColor=#7EA6E0;strokeColor=none;shadow=1;gradientColor=none;fontStyle=1;fontColor=#333333;fontSize=14;" vertex="1" parent="1">
          <mxGeometry x="1738" y="976" width="140" height="60" as="geometry" />
        </mxCell>
        <mxCell id="SAdEDekwwvnTSsliWkF6-147" value="Tech Lead - Vy Le" style="rounded=1;fillColor=#7EA6E0;strokeColor=none;shadow=1;gradientColor=none;fontStyle=1;fontColor=#333333;fontSize=14;" vertex="1" parent="1">
          <mxGeometry x="1920.5" y="976" width="150" height="60" as="geometry" />
        </mxCell>
        <mxCell id="SAdEDekwwvnTSsliWkF6-149" value="QE Lead - ?" style="rounded=1;fillColor=#7EA6E0;strokeColor=none;shadow=1;gradientColor=none;fontStyle=1;fontColor=#333333;fontSize=14;" vertex="1" parent="1">
          <mxGeometry x="2082" y="976" width="140" height="60" as="geometry" />
        </mxCell>
        <mxCell id="SAdEDekwwvnTSsliWkF6-150" value="Tech Lead - Nghia Dang" style="rounded=1;fillColor=#7EA6E0;strokeColor=none;shadow=1;gradientColor=none;fontStyle=1;fontColor=#333333;fontSize=14;" vertex="1" parent="1">
          <mxGeometry x="2260" y="976" width="170" height="60" as="geometry" />
        </mxCell>
        <mxCell id="SAdEDekwwvnTSsliWkF6-152" value="QE Lead - ?" style="rounded=1;fillColor=#7EA6E0;strokeColor=none;shadow=1;gradientColor=none;fontStyle=1;fontColor=#333333;fontSize=14;" vertex="1" parent="1">
          <mxGeometry x="2440" y="976" width="140" height="60" as="geometry" />
        </mxCell>
        <mxCell id="SAdEDekwwvnTSsliWkF6-176" value="AI&#xa;(Duy Lam)" style="rounded=1;fillColor=#7EA6E0;strokeColor=none;shadow=1;gradientColor=none;fontStyle=1;fontColor=#333333;fontSize=14;" vertex="1" parent="1">
          <mxGeometry x="2930" y="856" width="200" height="60" as="geometry" />
        </mxCell>
        <mxCell id="SAdEDekwwvnTSsliWkF6-178" value="Katalon Studio&#xa;(?)" style="rounded=1;fillColor=#7EA6E0;strokeColor=none;shadow=1;gradientColor=none;fontStyle=1;fontColor=#333333;fontSize=14;" vertex="1" parent="1">
          <mxGeometry x="2305" y="580" width="220" height="60" as="geometry" />
        </mxCell>
        <mxCell id="SAdEDekwwvnTSsliWkF6-179" value="" style="edgeStyle=elbowEdgeStyle;elbow=vertical;strokeWidth=4;endArrow=block;endFill=1;fontStyle=1;strokeColor=#23445D;entryX=0.5;entryY=0;entryDx=0;entryDy=0;fontColor=#333333;fillColor=#7EA6E0;" edge="1" parent="1" target="SAdEDekwwvnTSsliWkF6-135">
          <mxGeometry x="22" y="165.5" width="100" height="100" as="geometry">
            <mxPoint x="2415" y="816" as="sourcePoint" />
            <mxPoint x="1843" y="856" as="targetPoint" />
            <Array as="points">
              <mxPoint x="1920" y="816" />
            </Array>
          </mxGeometry>
        </mxCell>
        <mxCell id="SAdEDekwwvnTSsliWkF6-180" value="" style="edgeStyle=elbowEdgeStyle;elbow=vertical;strokeWidth=4;endArrow=block;endFill=1;fontStyle=1;strokeColor=#23445D;entryX=0.5;entryY=0;entryDx=0;entryDy=0;fontColor=#333333;fillColor=#7EA6E0;" edge="1" parent="1" target="SAdEDekwwvnTSsliWkF6-134">
          <mxGeometry x="22" y="165.5" width="100" height="100" as="geometry">
            <mxPoint x="2410" y="816" as="sourcePoint" />
            <mxPoint x="2123" y="856" as="targetPoint" />
            <Array as="points">
              <mxPoint x="2240" y="816" />
            </Array>
          </mxGeometry>
        </mxCell>
        <mxCell id="SAdEDekwwvnTSsliWkF6-181" value="" style="edgeStyle=elbowEdgeStyle;elbow=vertical;strokeWidth=4;endArrow=block;endFill=1;fontStyle=1;strokeColor=#23445D;entryX=0.5;entryY=0;entryDx=0;entryDy=0;fontColor=#333333;fillColor=#7EA6E0;" edge="1" parent="1" target="SAdEDekwwvnTSsliWkF6-136">
          <mxGeometry x="22" y="165.5" width="100" height="100" as="geometry">
            <mxPoint x="2415" y="770" as="sourcePoint" />
            <mxPoint x="2410" y="856" as="targetPoint" />
            <Array as="points">
              <mxPoint x="2404" y="826" />
            </Array>
          </mxGeometry>
        </mxCell>
        <mxCell id="SAdEDekwwvnTSsliWkF6-182" value="" style="edgeStyle=elbowEdgeStyle;elbow=vertical;strokeWidth=4;endArrow=block;endFill=1;fontStyle=1;strokeColor=#23445D;entryX=0.5;entryY=0;entryDx=0;entryDy=0;fontColor=#333333;fillColor=#7EA6E0;" edge="1" parent="1">
          <mxGeometry x="22" y="165.5" width="100" height="100" as="geometry">
            <mxPoint x="2415" y="816" as="sourcePoint" />
            <mxPoint x="2721" y="856" as="targetPoint" />
            <Array as="points">
              <mxPoint x="2541" y="816" />
            </Array>
          </mxGeometry>
        </mxCell>
        <mxCell id="SAdEDekwwvnTSsliWkF6-183" value="" style="edgeStyle=elbowEdgeStyle;elbow=vertical;strokeWidth=4;endArrow=block;endFill=1;fontStyle=1;strokeColor=#23445D;fontColor=#333333;fillColor=#7EA6E0;entryX=0.5;entryY=0;entryDx=0;entryDy=0;" edge="1" parent="1" target="SAdEDekwwvnTSsliWkF6-176">
          <mxGeometry x="22" y="165.5" width="100" height="100" as="geometry">
            <mxPoint x="2415" y="816" as="sourcePoint" />
            <mxPoint x="2942" y="856" as="targetPoint" />
            <Array as="points">
              <mxPoint x="2652" y="816" />
            </Array>
          </mxGeometry>
        </mxCell>
        <mxCell id="SAdEDekwwvnTSsliWkF6-188" value="" style="edgeStyle=elbowEdgeStyle;elbow=vertical;strokeWidth=4;endArrow=block;endFill=1;fontStyle=1;strokeColor=#23445D;entryX=0.5;entryY=0;entryDx=0;entryDy=0;exitX=0.5;exitY=1;exitDx=0;exitDy=0;fontColor=#333333;fillColor=#7EA6E0;" edge="1" parent="1" source="SAdEDekwwvnTSsliWkF6-134" target="SAdEDekwwvnTSsliWkF6-147">
          <mxGeometry x="22" y="165.5" width="100" height="100" as="geometry">
            <mxPoint x="2060.5" y="916" as="sourcePoint" />
            <mxPoint x="1965.5" y="976" as="targetPoint" />
            <Array as="points" />
          </mxGeometry>
        </mxCell>
        <mxCell id="SAdEDekwwvnTSsliWkF6-189" value="" style="edgeStyle=elbowEdgeStyle;elbow=vertical;strokeWidth=4;endArrow=block;endFill=1;fontStyle=1;strokeColor=#23445D;entryX=0.5;entryY=0;entryDx=0;entryDy=0;exitX=0.5;exitY=1;exitDx=0;exitDy=0;fontColor=#333333;fillColor=#7EA6E0;" edge="1" parent="1" source="SAdEDekwwvnTSsliWkF6-136" target="SAdEDekwwvnTSsliWkF6-150">
          <mxGeometry x="22" y="165.5" width="100" height="100" as="geometry">
            <mxPoint x="2406" y="916" as="sourcePoint" />
            <mxPoint x="2340" y="976" as="targetPoint" />
            <Array as="points" />
          </mxGeometry>
        </mxCell>
        <mxCell id="SAdEDekwwvnTSsliWkF6-190" value="General Technical Lead&#xa;(Vu Than)" style="rounded=1;fillColor=#7EA6E0;strokeColor=none;shadow=1;gradientColor=none;fontStyle=1;fontColor=#333333;fontSize=14;" vertex="1" parent="1">
          <mxGeometry x="2082" y="690" width="200" height="60" as="geometry" />
        </mxCell>
        <mxCell id="SAdEDekwwvnTSsliWkF6-192" value="" style="edgeStyle=elbowEdgeStyle;elbow=vertical;strokeWidth=4;endArrow=block;endFill=1;fontStyle=1;strokeColor=#23445D;entryX=0.5;entryY=0;entryDx=0;entryDy=0;exitX=0.5;exitY=1;exitDx=0;exitDy=0;fontColor=#333333;fillColor=#7EA6E0;" edge="1" parent="1" source="SAdEDekwwvnTSsliWkF6-178" target="SAdEDekwwvnTSsliWkF6-190">
          <mxGeometry x="22" y="165.5" width="100" height="100" as="geometry">
            <mxPoint x="2410" y="640" as="sourcePoint" />
            <mxPoint x="2315" y="700" as="targetPoint" />
            <Array as="points" />
          </mxGeometry>
        </mxCell>
        <mxCell id="SAdEDekwwvnTSsliWkF6-193" value="" style="edgeStyle=elbowEdgeStyle;elbow=vertical;strokeWidth=4;endArrow=block;endFill=1;fontStyle=1;strokeColor=#23445D;entryX=0.5;entryY=0;entryDx=0;entryDy=0;exitX=0.5;exitY=1;exitDx=0;exitDy=0;fontColor=#333333;fillColor=#7EA6E0;" edge="1" parent="1" source="SAdEDekwwvnTSsliWkF6-178">
          <mxGeometry x="22" y="165.5" width="100" height="100" as="geometry">
            <mxPoint x="2540" y="660" as="sourcePoint" />
            <mxPoint x="2650" y="690" as="targetPoint" />
            <Array as="points" />
          </mxGeometry>
        </mxCell>
        <mxCell id="SAdEDekwwvnTSsliWkF6-194" value="" style="edgeStyle=elbowEdgeStyle;elbow=vertical;strokeWidth=4;endArrow=block;endFill=1;fontStyle=1;strokeColor=#23445D;exitX=0.5;exitY=1;exitDx=0;exitDy=0;fontColor=#333333;entryX=0.5;entryY=0;entryDx=0;entryDy=0;" edge="1" parent="1" source="SAdEDekwwvnTSsliWkF6-190">
          <mxGeometry x="22" y="165.5" width="100" height="100" as="geometry">
            <mxPoint x="2189" y="750" as="sourcePoint" />
            <mxPoint x="2650" y="690" as="targetPoint" />
            <Array as="points">
              <mxPoint x="2420" y="770" />
            </Array>
          </mxGeometry>
        </mxCell>
        <mxCell id="SAdEDekwwvnTSsliWkF6-196" value="EOM&#xa;(Annie Le)" style="rounded=1;fillColor=#7EA6E0;strokeColor=none;shadow=1;gradientColor=none;fontStyle=1;fontColor=#333333;fontSize=14;" vertex="1" parent="1">
          <mxGeometry x="2550" y="690" width="200" height="60" as="geometry" />
        </mxCell>
      </root>
    </mxGraphModel>
  </diagram>
</mxfile>
